<svg width="240" height="229" viewBox="0 0 240 229" fill="none" xmlns="http://www.w3.org/2000/svg">
<g opacity="0.3" filter="url(#filter0_f_17_409)">
<path d="M94.2818 24.4758C95.7975 22.9601 98.0068 22.3681 100.077 22.9229L184.182 45.4587C186.253 46.0135 187.87 47.6308 188.425 49.7014L210.961 133.806C211.516 135.877 210.924 138.086 209.408 139.602L147.839 201.171C146.323 202.687 144.114 203.279 142.043 202.724L57.9383 180.188C55.8678 179.633 54.2505 178.016 53.6957 175.945L31.1598 91.8404C30.605 89.7699 31.197 87.5606 32.7127 86.0449L94.2818 24.4758Z" fill="#6B3D0F"/>
</g>
<g opacity="0.4" filter="url(#filter1_f_17_409)">
<path d="M95.5759 29.3054C97.0916 27.7896 99.3009 27.1977 101.371 27.7525L186.442 50.5471C188.513 51.1019 190.13 52.7192 190.685 54.7898L213.48 139.861C214.034 141.931 213.442 144.14 211.927 145.656L149.65 207.932C148.135 209.448 145.925 210.04 143.855 209.485L58.7841 186.691C56.7136 186.136 55.0963 184.518 54.5415 182.448L31.7468 97.3771C31.192 95.3066 31.784 93.0973 33.2997 91.5816L95.5759 29.3054Z" fill="#6B3D0F"/>
</g>
<path d="M92.2112 16.7482C93.727 15.2324 95.9362 14.6405 98.0068 15.1953L185.975 38.7664C188.046 39.3212 189.663 40.9385 190.218 43.009L213.789 130.978C214.344 133.048 213.752 135.257 212.236 136.773L147.839 201.171C146.323 202.686 144.114 203.278 142.043 202.724L54.0746 179.152C52.004 178.598 50.3868 176.98 49.832 174.91L26.2608 86.9412C25.706 84.8707 26.298 82.6614 27.8137 81.1457L92.2112 16.7482Z" fill="url(#paint0_linear_17_409)"/>
<g clip-path="url(#clip0_17_409)">
<path d="M148.871 91.7907C147.769 82.1046 139.337 78.9983 128.747 78.2567L128.512 64.7987L120.32 64.9429L120.55 78.0463C118.396 78.0837 116.196 78.1648 114.009 78.2466L113.78 65.0562L105.593 65.199L105.825 78.6533C104.052 78.7206 102.311 78.7844 100.613 78.8148L100.611 78.7727L89.3126 78.9658L89.4675 87.7151C89.4675 87.7151 95.5148 87.4945 95.4163 87.607C98.7339 87.5499 99.8479 89.4578 100.192 91.1144L100.46 106.446C100.689 106.443 100.987 106.447 101.327 106.488C101.054 106.493 100.762 106.497 100.461 106.505L100.834 127.983C100.707 129.03 100.122 130.706 97.8041 130.75C97.9109 130.841 91.8495 130.853 91.8495 130.853L90.3922 140.665L101.053 140.478C103.037 140.446 104.99 140.446 106.907 140.424L107.148 154.035L115.331 153.894L115.095 140.426C117.343 140.433 119.517 140.413 121.641 140.374L121.871 153.78L130.063 153.635L129.828 140.048C143.587 139.018 153.165 135.38 154.136 122.426C154.92 111.995 149.941 107.434 142.091 105.693C146.798 103.191 149.69 98.878 148.871 91.7907ZM137.919 121.095C138.1 131.267 120.664 130.414 115.112 130.516L114.799 112.482C120.352 112.386 137.734 110.485 137.919 121.095ZM133.664 95.7174C133.823 104.971 119.279 104.145 114.655 104.226L114.37 87.8704C118.994 87.7895 133.494 86.0658 133.664 95.7174Z" fill="white"/>
</g>
<defs>
<filter id="filter0_f_17_409" x="24.9552" y="16.7183" width="192.21" height="192.21" filterUnits="userSpaceOnUse" color-interpolation-filters="sRGB">
<feFlood flood-opacity="0" result="BackgroundImageFix"/>
<feBlend mode="normal" in="SourceGraphic" in2="BackgroundImageFix" result="shape"/>
<feGaussianBlur stdDeviation="3" result="effect1_foregroundBlur_17_409"/>
</filter>
<filter id="filter1_f_17_409" x="16.5422" y="12.5479" width="212.142" height="212.142" filterUnits="userSpaceOnUse" color-interpolation-filters="sRGB">
<feFlood flood-opacity="0" result="BackgroundImageFix"/>
<feBlend mode="normal" in="SourceGraphic" in2="BackgroundImageFix" result="shape"/>
<feGaussianBlur stdDeviation="7.5" result="effect1_foregroundBlur_17_409"/>
</filter>
<linearGradient id="paint0_linear_17_409" x1="94.901" y1="15.1953" x2="145.149" y2="202.724" gradientUnits="userSpaceOnUse">
<stop stop-color="#F4BA45"/>
<stop offset="1" stop-color="#F19C3B"/>
</linearGradient>
<clipPath id="clip0_17_409">
<rect width="97.8735" height="97.8735" fill="white" transform="translate(59.9351 74.2666) rotate(-15)"/>
</clipPath>
</defs>
</svg>
