<svg width="21" height="21" viewBox="0 0 21 21" fill="none" xmlns="http://www.w3.org/2000/svg">
<path d="M7.5 1.73206C9.35641 0.660258 11.6436 0.660258 13.5 1.73206L16.5933 3.51795C18.4497 4.58975 19.5933 6.57051 19.5933 8.71411V12.2859C19.5933 14.4295 18.4497 16.4103 16.5933 17.4821L13.5 19.268C11.6436 20.3398 9.35641 20.3398 7.5 19.268L4.40674 17.4821C2.55033 16.4103 1.40674 14.4295 1.40674 12.2859V8.71411C1.40674 6.57051 2.55033 4.58975 4.40674 3.51795L7.5 1.73206Z" fill="url(#paint0_linear_217_484)"/>
<g clip-path="url(#clip0_217_484)">
<path d="M7.54696 10.591L10.5682 5.57812V5.58051L10.5689 5.57812L13.5896 10.5903L13.5912 10.5911L10.57 12.3769V12.3764L10.5689 12.377L10.5682 12.3763V12.3769L7.54696 10.591Z" fill="white"/>
<path d="M10.5682 15.4198V15.4219L7.54688 11.1644L10.5682 12.9493V12.9502L10.5689 12.9493L13.5919 11.1644L10.5689 15.4219L10.5682 15.4198Z" fill="white"/>
</g>
<defs>
<linearGradient id="paint0_linear_217_484" x1="10.5" y1="0.928207" x2="10.5" y2="20.0718" gradientUnits="userSpaceOnUse">
<stop stop-color="#9A7DE8"/>
<stop offset="1" stop-color="#7852E0"/>
</linearGradient>
<clipPath id="clip0_217_484">
<rect width="10.5" height="10.5" fill="white" transform="translate(5.25 5.25)"/>
</clipPath>
</defs>
</svg>
